<?xml version="1.0" standalone="no"?>
<!DOCTYPE svg PUBLIC "-//W3C//DTD SVG 1.1//EN" "http://www.w3.org/Graphics/SVG/1.1/DTD/svg11.dtd" >
<svg xmlns="http://www.w3.org/2000/svg">
<metadata>Generated by IcoMoon</metadata>
<defs>
<font id="editor-icons" horiz-adv-x="1024">
<font-face units-per-em="1024" ascent="960" descent="-64" />
<missing-glyph horiz-adv-x="1024" />
<glyph unicode="&#x20;" horiz-adv-x="512" d="" />
<glyph unicode="&#xe900;" glyph-name="add-block" d="M704 476.8v-56.8c-0.161-5.567-4.544-10.061-10.050-10.399l-144.030-0.001v-144c-0.076-5.547-4.418-10.056-9.89-10.398l-56.35-0.002c-5.536 0.339-9.919 4.833-10.080 10.385v144.015h-144c-5.374 0.346-9.602 4.789-9.602 10.22 0 0.063 0.001 0.126 0.002 0.189v56.791c0 5.302 4.298 9.6 9.6 9.6h144v144c0.263 5.357 4.67 9.6 10.069 9.6 0.004 0 0.008 0 0.012 0h56.799c0.002 0 0.003 0 0.005 0 5.366 0 9.737-4.261 9.914-9.584v-144.016h144c5.232-0.171 9.429-4.368 9.6-9.584zM832 768v-640h-640v640h640zM896 832h-768v-768h768v768zM0 832h64v-64h-64v64zM0 128h64v-64h-64v64zM960 128h64v-64h-64v64zM960 832h64v-64h-64v64z" />
<glyph unicode="&#xe901;" glyph-name="add-container" d="M540.8 256h-56.8c-5.567 0.161-10.061 4.544-10.399 10.050l-0.001 144.030h-144c-5.547 0.076-10.056 4.418-10.398 9.89l-0.002 56.35c0.339 5.536 4.833 9.919 10.385 10.080h144.015v144c0.346 5.374 4.789 9.602 10.22 9.602 0.063 0 0.126-0.001 0.189-0.002h56.791c5.302 0 9.6-4.298 9.6-9.6v-144h144c5.357-0.263 9.6-4.67 9.6-10.069 0-0.004 0-0.008 0-0.012v-56.799c0-0.002 0-0.003 0-0.005 0-5.366-4.261-9.737-9.584-9.914h-144.016v-144c-0.171-5.232-4.368-9.429-9.584-9.6zM832 768v-640h-640v640h640zM896 832h-768v-768h768v768zM832 960h64v-64h-64v64zM128 960h64v-64h-64v64zM128 0h64v-64h-64v64zM832 0h64v-64h-64v64z" />
<glyph unicode="&#xe902;" glyph-name="add-row" d="M540.8 256h-56.8c-5.567 0.161-10.061 4.544-10.399 10.050l-0.001 144.030h-144c-5.547 0.076-10.056 4.418-10.398 9.89l-0.002 56.35c0.339 5.536 4.833 9.919 10.385 10.080h144.015v144c0.346 5.374 4.789 9.602 10.22 9.602 0.063 0 0.126-0.001 0.189-0.002h56.791c5.302 0 9.6-4.298 9.6-9.6v-144h144c5.357-0.263 9.6-4.67 9.6-10.069 0-0.004 0-0.008 0-0.012v-56.799c0-0.002 0-0.003 0-0.005 0-5.366-4.261-9.737-9.584-9.914h-144.016v-144c-0.171-5.232-4.368-9.429-9.584-9.6zM832 768v-640h-640v640h640zM896 832h-768v-768h768v768zM832 960h64v-64h-64v64zM128 960h64v-64h-64v64zM128 0h64v-64h-64v64zM832 0h64v-64h-64v64z" />
<glyph unicode="&#xe903;" glyph-name="cancel" d="M648 448l240.96 240.8c4.365 4.419 7.061 10.495 7.061 17.2s-2.696 12.781-7.063 17.202l-101.598 101.598c-4.393 4.355-10.442 7.047-17.12 7.047s-12.727-2.691-17.122-7.048l-241.118-240.958-240.96 241.12c-4.393 4.355-10.442 7.047-17.12 7.047s-12.727-2.691-17.122-7.048l-101.758-101.598c-4.403-4.401-7.126-10.483-7.126-17.2s2.723-12.799 7.126-17.2l241.12-240.96-240.96-241.12c-4.318-4.41-6.982-10.454-6.982-17.12s2.664-12.71 6.986-17.124l101.596-101.596c4.419-4.365 10.495-7.061 17.2-7.061s12.781 2.696 17.202 7.063l240.798 240.958 240-240c4.419-4.365 10.495-7.061 17.2-7.061s12.781 2.696 17.202 7.063l101.598 101.598c4.365 4.419 7.061 10.495 7.061 17.2s-2.696 12.781-7.063 17.202z" />
<glyph unicode="&#xe904;" glyph-name="change-type" d="M493.28 960h-474.56c-10.339 0-18.72-8.381-18.72-18.72v-389.28c0-10.339 8.381-18.72 18.72-18.72h474.56c10.339 0 18.72 8.381 18.72 18.72v389.28c0 10.339-8.381 18.72-18.72 18.72zM469.28 712.96l-75.2 76.32c-10.892 11.324-25.418 19.082-41.697 21.395-16.607-2.325-30.707-10.028-41.147-21.196s-55.237-64.36-76.837-85.48c34.24-14.56 85.92-98.88 46.4-73.76-30.368 17.963-66.169 35.58-103.327 50.535l-134.753-83.495v320h426.56zM174.72 832c0-25.803-20.917-46.72-46.72-46.72s-46.72 20.917-46.72 46.72c0 25.803 20.917 46.72 46.72 46.72s46.72-20.917 46.72-46.72zM962.56 386.56h-348.16v-102.4h20.32c-0.165 1.617-0.259 3.494-0.259 5.393 0 31.105 25.215 56.32 56.32 56.32 1.951 0 3.878-0.099 5.777-0.293l81.681 0.020v-368c0-20.48-40.96-20.48-61.44-20.48v-21.12h204.8v20.48c-20.48 0-61.44 0-61.44 20.48v368h81.92c1.612 0.164 3.484 0.257 5.377 0.257 31.105 0 56.32-25.215 56.32-56.32 0-1.894-0.093-3.765-0.276-5.611l20.499 0.233v102.4zM716.8 161.28h-204.8v-51.2h10.24c-0.082 0.806-0.129 1.742-0.129 2.689 0 15.552 12.608 28.16 28.16 28.16 0.947 0 1.883-0.047 2.805-0.138l40.843 0.009v-184.32c0-10.24-20.48-10.24-30.72-10.24v-10.24h102.4v10.24c-10.24 0-30.72 0-30.72 10.24v184.32h40.96c0.806 0.082 1.742 0.129 2.689 0.129 15.552 0 28.16-12.608 28.16-28.16 0-0.947-0.047-1.883-0.138-2.805l10.249 0.117zM848 561.12v190.88h-256v-64h192v-126.88h-65.12l97.12-97.12 97.12 97.12h-65.12zM240 224v126.88h65.12l-97.12 97.12-97.12-97.12h65.12v-190.88h256v64h-192z" />
<glyph unicode="&#xe905;" glyph-name="content" d="M693.76 760.16l129.76-129.76 64 64c3.998 4.138 6.462 9.781 6.462 16s-2.464 11.862-6.468 16.007l-95.994 98.873c-4.138 3.998-9.781 6.462-16 6.462s-11.862-2.464-16.007-6.468l-47.993-47.994zM244.193 310.484l410.235 410.235 130.334-130.334-410.235-410.235-130.334 130.334zM204.64 271.040l-75.52-196.64c-3.2-8.32 0.96-12.48 9.28-9.28l196.64 75.52z" />
<glyph unicode="&#xe906;" glyph-name="desktop" d="M964.96 881.28h-905.92c-32.626-0.091-59.040-26.561-59.040-59.2 0 0 0 0 0 0v-571.040h1024v571.040c0 0 0 0 0 0 0 32.639-26.414 59.109-59.031 59.2zM945.28 329.92h-866.56v472.48h866.56zM0 241.28v-54.080c0-35.84 26.56-54.080 59.040-54.080h905.92c32 0 59.040 18.4 59.040 54.080v54.080zM732.96 26.4c10.4 0 11.52-11.68 0-11.68h-440.48c-11.68 0-11.2 11.68 0 11.68s101.6-11.68 101.6 67.040v39.52h235.52s0 0 0-39.36c0.48-78.88 92.8-67.2 103.36-67.2z" />
<glyph unicode="&#xe907;" glyph-name="edit-page" d="M688 640h172l-188 189.44v-171.68c-0.062-0.528-0.097-1.14-0.097-1.76 0-8.837 7.163-16 16-16 0.034 0 0.068 0 0.102 0zM650.080 601.6c-0.040 0-0.088-0.001-0.136-0.001-8.837 0-16 7.163-16 16 0 0.734 0.049 1.456 0.145 2.163l-0.009 212.238h-455.040c-10.764-1.247-19.042-10.309-19.042-21.305 0-0.104 0.001-0.207 0.002-0.31v-724.784c-0.001-0.088-0.002-0.191-0.002-0.295 0-10.996 8.278-20.059 18.942-21.296l661.86-0.009c11.905 0.885 21.462 9.895 23.183 21.462l0.017 516.138zM325.28 160c-4.16-1.6-6.24 0-4.64 4.64l37.76 98.24 65.12-65.12zM443.36 217.44l-65.28 65.76 205.12 205.12 65.12-65.12zM700.64 475.52l-32.32-32.32-65.28 65.28 32.32 32.32c2.069 1.999 4.891 3.231 8 3.231s5.931-1.232 8.003-3.234l48.797-48.797c2.288-2.112 3.716-5.126 3.716-8.474 0-3.112-1.234-5.936-3.239-8.009z" />
<glyph unicode="&#xe908;" glyph-name="fullscreen" d="M896 832v-224h-64v160h-160v64zM192 608v160h160v64h-224v-224zM832 288v-160h-160v-64h224v224zM192 288h-64v-224h224v64h-160zM689.92 558.080l66.72-66.72c6.24-6.24 11.36-4.16 11.36 4.64v192c0 8.837-7.163 16-16 16h-192c-8.8 0-10.88-5.12-4.64-11.36l66.72-66.72-110.080-110.080-110.080 110.080 66.72 66.72c6.24 6.24 4.16 11.36-4.64 11.36h-192c-8.837 0-16-7.163-16-16v-192c0-8.8 5.12-10.88 11.36-4.64l66.72 66.72 110.080-110.080-110.080-110.080-66.72 66.72c-6.24 6.24-11.36 4.16-11.36-4.64v-192c0-8.837 7.163-16 16-16h192c8.8 0 10.88 5.12 4.64 11.36l-66.72 66.72 110.080 110.080 110.080-110.080-66.72-66.72c-6.24-6.24-4.16-11.36 4.64-11.36h192c8.837 0 16 7.163 16 16v192c0 8.8-5.12 10.88-11.36 4.64l-66.72-66.72-110.080 110.080z" />
<glyph unicode="&#xe909;" glyph-name="laptop" d="M1005.76 246.88h-91.52v438.88c0 20.236-16.404 36.64-36.64 36.64h-731.36c-20.236 0-36.64-16.404-36.64-36.64v-438.88h-91.36c-10.037-0.090-18.15-8.203-18.24-18.231v-18.249c0 0 0 0 0-0.001 0-10.106 8.147-18.309 18.231-18.399l18.249-18.24h950.88l18.4 18.24c10.037 0.090 18.15 8.203 18.24 18.231v18.409c-0.090 10.037-8.203 18.15-18.231 18.24zM182.88 649.12h658.24v-402.24h-658.24z" />
<glyph unicode="&#xe90a;" glyph-name="layout" d="M704 640v-640h-640v640h640zM768 704h-768v-768h768v768zM864 347.84h64v51.040h65.12l-97.12 97.12-97.12-97.12h65.12v-51.040zM928 283.84h-64v-58.72h-65.12l97.12-97.12 97.12 97.12h-65.12v58.72zM347.84 864h64v-64h-64v64zM219.84 864h64v-64h-64v64zM475.84 864h64v-64h-64v64zM752 832l-97.12 97.12v-65.12h-51.040v-64h51.040v-65.12l97.12 97.12zM97.12 929.12l-97.12-97.12 97.12-97.12v65.12h58.72v64h-58.72v65.12zM672 448h-64v64h64zM544 448h-64v64h64zM416 448h-64v64h64zM288 448h-64v64h64zM160 448h-64v64h64zM672 128h-64v64h64zM544 128h-64v64h64zM416 128h-64v64h64zM288 128h-64v64h64zM160 128h-64v64h64z" />
<glyph unicode="&#xe90b;" glyph-name="move-down" d="M128 128h64v-64h-64v64zM128 0h64v-64h-64v64zM832 128h64v-64h-64v64zM832 0h64v-64h-64v64zM544 130.4v445.6h-64v-445.6h-162.4l194.4-194.4 194.4 194.4h-162.4zM128 192h288v64h-224v640h640v-640h-224v-64h288v768h-768v-768z" />
<glyph unicode="&#xe90c;" glyph-name="move-left" d="M128 832h64v-64h-64v64zM0 832h64v-64h-64v64zM128 128h64v-64h-64v64zM0 128h64v-64h-64v64zM640 480h-445.76v162.4l-194.24-194.4 194.24-194.4v162.4h445.76v64zM256 832v-288h64v224h640v-640h-640v224h-64v-288h768v768h-768z" />
<glyph unicode="&#xe90d;" glyph-name="move-right" d="M832 128h64v-64h-64v64zM960 128h64v-64h-64v64zM832 832h64v-64h-64v64zM960 832h64v-64h-64v64zM1024 448l-194.4 194.4v-162.4h-445.6v-64h445.6v-162.4l194.4 194.4zM768 64v288h-64v-224h-640v640h640v-224h64v288h-768v-768h768z" />
<glyph unicode="&#xe90e;" glyph-name="move-up" d="M832 832h64v-64h-64v64zM832 960h64v-64h-64v64zM128 832h64v-64h-64v64zM128 960h64v-64h-64v64zM706.4 765.76l-194.4 194.24-194.4-194.24h162.4v-445.76h64v445.76h162.4zM896 704h-288v-64h224v-640h-640v640h224v64h-288v-768h768v768z" />
<glyph unicode="&#xe90f;" glyph-name="new-page" d="M688 640h172l-188 189.44v-171.68c-0.062-0.528-0.097-1.14-0.097-1.76 0-8.837 7.163-16 16-16 0.034 0 0.068 0 0.102 0zM650.080 601.6c-0.040 0-0.088-0.001-0.136-0.001-8.837 0-16 7.163-16 16 0 0.734 0.049 1.456 0.145 2.163l-0.009 212.238h-455.040c-10.764-1.247-19.042-10.309-19.042-21.305 0-0.104 0.001-0.207 0.002-0.31v-724.784c-0.001-0.088-0.002-0.191-0.002-0.295 0-10.996 8.278-20.059 18.942-21.296l661.86-0.009c11.905 0.885 21.462 9.895 23.183 21.462l0.017 516.138zM704 324c-0.161-5.567-4.544-10.061-10.050-10.399l-144.030-0.001v-144c-0.076-5.547-4.418-10.056-9.89-10.398l-56.35-0.002c-5.536 0.339-9.919 4.833-10.080 10.385v144.015h-144c-5.374 0.346-9.602 4.789-9.602 10.22 0 0.063 0.001 0.126 0.002 0.189v56.791c0 5.302 4.298 9.6 9.6 9.6h144v144c0.263 5.357 4.67 9.6 10.069 9.6 0.004 0 0.008 0 0.012 0h56.799c0.002 0 0.003 0 0.005 0 5.366 0 9.737-4.261 9.914-9.584v-144.016h144c0.049 0.001 0.107 0.001 0.165 0.001 5.367 0 9.738-4.262 9.914-9.585z" />
<glyph unicode="&#xe910;" glyph-name="ok" d="M891.2 644.8c3.070-2.921 4.98-7.038 4.98-11.6s-1.91-8.679-4.973-11.594l-476.487-476.486c-2.921-3.070-7.038-4.98-11.6-4.98s-8.679 1.91-11.594 4.973l-258.086 258.087c-3.070 2.921-4.98 7.038-4.98 11.6s1.91 8.679 4.973 11.594l106.567 107.686c2.921 3.070 7.038 4.98 11.6 4.98s8.679-1.91 11.594-4.973l128.006-128.007c2.921-3.070 7.038-4.98 11.6-4.98s8.679 1.91 11.594 4.973l345.766 344.807c2.927 3.121 7.077 5.065 11.68 5.065s8.753-1.944 11.672-5.056z" />
<glyph unicode="&#xe911;" glyph-name="power" d="M577.44 537.92c0-17.673-14.327-32-32-32h-65.44c-17.673 0-32 14.327-32 32v262.080c0 17.673 14.327 32 32 32h64c17.673 0 32-14.327 32-32zM684.96 704c-19.2 11.2-42.24 16-42.24-10.72v-60c0.157-15.436 9.321-28.693 22.48-34.781 56.572-45.397 92.32-114.311 92.32-191.574 0-135.376-109.744-245.12-245.12-245.12s-245.12 109.744-245.12 245.12c0 77.263 35.747 146.177 91.605 191.105 7.515 5.97 22.395 8.050 22.395 34.77v57.6c0 27.52-19.84 27.040-44.8 11.2-100.678-61.032-166.924-170.015-166.924-294.471 0-189.544 153.656-343.2 343.2-343.2s343.2 153.656 343.2 343.2c0 126.117-68.027 236.346-169.388 295.996z" />
<glyph unicode="&#xe912;" glyph-name="reload" d="M237.6 356l-91.2-1.6c-7.636 28.348-12.023 60.894-12.023 94.466 0 208.278 168.842 377.12 377.12 377.12 77.002 0 148.614-23.078 208.296-62.695l0.527-0.41 46.56 64c5.12 7.040 11.36 5.92 13.92-2.24l60.64-195.52c0.694-1.415 1.1-3.080 1.1-4.839 0-6.186-5.014-11.2-11.2-11.2-0.331 0-0.658 0.014-0.982 0.042l-204.598-3.523c-8.64 0-11.52 5.44-6.56 12.48l45.6 63.040c-43.184 28.084-96.015 44.784-152.747 44.784-156.23 0-282.88-126.65-282.88-282.88 0-32.168 5.369-63.082 15.261-91.894zM877.6 539.2l-97.6-1.76c9.184-26.668 14.487-57.398 14.487-89.367 0-156.23-126.65-282.88-282.88-282.88-56.59 0-109.299 16.617-153.513 45.238l46.706 62.369c5.12 6.88 2.080 12.64-6.56 12.48l-204.64-3.52c-0.281 0.025-0.609 0.039-0.94 0.039-6.186 0-11.2-5.014-11.2-11.2 0-1.76 0.406-3.424 1.129-4.906l60.611-194.814c2.56-8.32 8.8-9.28 13.92-2.24l46.56 64 1.92-1.28c58.297-38.762 129.921-61.848 206.938-61.848 208.278 0 377.12 168.842 377.12 377.12 0 32.941-4.223 64.895-12.158 95.351z" />
<glyph unicode="&#xe913;" glyph-name="remove-block" d="M668.16 332.64l-40.16-40.16c-1.895-1.723-4.424-2.778-7.2-2.778s-5.305 1.055-7.209 2.786l-101.591 101.272-101.28-101.28c-1.881-1.757-4.414-2.835-7.2-2.835s-5.319 1.079-7.206 2.841l-40.154 40.154c-1.723 1.895-2.778 4.424-2.778 7.2s1.055 5.305 2.786 7.209l101.592 100.951-101.76 101.76c-1.736 1.831-2.804 4.311-2.804 7.040s1.068 5.209 2.808 7.045l40.156 40.155c1.738 1.744 4.143 2.824 6.8 2.824s5.062-1.079 6.8-2.823l102.24-101.76 101.76 101.76c1.806 1.726 4.259 2.789 6.96 2.789s5.154-1.062 6.964-2.792l40.156-40.156c1.716-1.781 2.774-4.207 2.774-6.88s-1.057-5.099-2.776-6.883l-101.597-102.077 101.6-101.6c1.814-1.798 2.937-4.291 2.937-7.046 0-2.593-0.995-4.953-2.624-6.721zM832 768v-640h-640v640h640zM896 832h-768v-768h768v768zM0 832h64v-64h-64v64zM0 128h64v-64h-64v64zM960 128h64v-64h-64v64zM960 832h64v-64h-64v64z" />
<glyph unicode="&#xe914;" glyph-name="remove-container" d="M355.84 563.36l40.16 40.16c1.895 1.723 4.424 2.778 7.2 2.778s5.305-1.055 7.209-2.786l101.591-101.272 101.28 101.28c1.881 1.757 4.414 2.835 7.2 2.835s5.319-1.079 7.206-2.841l40.154-40.154c1.723-1.895 2.778-4.424 2.778-7.2s-1.055-5.305-2.786-7.209l-101.592-100.951 101.76-101.76c1.736-1.831 2.804-4.311 2.804-7.040s-1.068-5.209-2.808-7.045l-40.156-40.155c-1.738-1.744-4.143-2.824-6.8-2.824s-5.062 1.079-6.8 2.823l-102.24 101.76-101.76-101.76c-1.806-1.726-4.259-2.789-6.96-2.789s-5.154 1.062-6.964 2.792l-40.156 40.156c-1.716 1.781-2.774 4.207-2.774 6.88s1.057 5.099 2.776 6.883l101.597 102.077-101.6 101.6c-1.814 1.798-2.937 4.291-2.937 7.046 0 2.593 0.995 4.953 2.624 6.721zM832 768v-640h-640v640h640zM896 832h-768v-768h768v768zM832 960h64v-64h-64v64zM128 960h64v-64h-64v64zM128 0h64v-64h-64v64zM832 0h64v-64h-64v64z" />
<glyph unicode="&#xe915;" glyph-name="remove-row" d="M355.84 563.36l40.16 40.16c1.895 1.723 4.424 2.778 7.2 2.778s5.305-1.055 7.209-2.786l101.591-101.272 101.28 101.28c1.881 1.757 4.414 2.835 7.2 2.835s5.319-1.079 7.206-2.841l40.154-40.154c1.723-1.895 2.778-4.424 2.778-7.2s-1.055-5.305-2.786-7.209l-101.592-100.951 101.76-101.76c1.736-1.831 2.804-4.311 2.804-7.040s-1.068-5.209-2.808-7.045l-40.156-40.155c-1.738-1.744-4.143-2.824-6.8-2.824s-5.062 1.079-6.8 2.823l-102.24 101.76-101.76-101.76c-1.806-1.726-4.259-2.789-6.96-2.789s-5.154 1.062-6.964 2.792l-40.156 40.156c-1.716 1.781-2.774 4.207-2.774 6.88s1.057 5.099 2.776 6.883l101.597 102.077-101.6 101.6c-1.814 1.798-2.937 4.291-2.937 7.046 0 2.593 0.995 4.953 2.624 6.721zM832 768v-640h-640v640h640zM896 832h-768v-768h768v768zM832 960h64v-64h-64v64zM128 960h80v-64h-80v64zM128 0h64v-64h-64v64zM832 0h64v-64h-64v64z" />
<glyph unicode="&#xe916;" glyph-name="smartphone" d="M668 864h-312c-47.858-0.091-86.629-38.862-86.72-86.711v-658.569c0.091-47.858 38.862-86.629 86.711-86.72h312.009c47.858 0.091 86.629 38.862 86.72 86.711v658.569c-0.091 47.858-38.862 86.629-86.711 86.72zM512 57.28c-33.932 0-61.44 27.508-61.44 61.44s27.508 61.44 61.44 61.44c33.932 0 61.44-27.508 61.44-61.44s-27.508-61.44-61.44-61.44zM338.72 205.28v520h346.56v-520z" />
<glyph unicode="&#xe917;" glyph-name="tablet" d="M789.28 864h-554.56c-33.984-0.091-61.509-27.616-61.6-61.591v-708.809c0.091-33.984 27.616-61.509 61.591-61.6h554.569c33.984 0.091 61.509 27.616 61.6 61.591v708.809c-0.091 33.984-27.616 61.509-61.591 61.6zM512 42.080c-19.971 0-36.16 16.189-36.16 36.16s16.189 36.16 36.16 36.16c19.971 0 36.16-16.189 36.16-36.16s-16.189-36.16-36.16-36.16zM758.56 124.48h-493.12v647.040h493.12z" />
</font>
</defs>
</svg>
